<svg width="350" height="560" viewBox="0 0 350 560" fill="none" xmlns="http://www.w3.org/2000/svg">
<rect width="350" height="560" fill="#FFC700"/>
<rect x="47" y="124" width="66" height="66" rx="6" fill="#111111"/>
<rect x="153" y="124" width="66" height="66" rx="6" fill="#111111"/>
<path d="M6 216C2 216 0.333333 220.333 0 222.5C0 294.5 61.3333 313.167 92 313.5H185.5C274 313.5 280 236 280 226C280 218 274 216 271 216H236C227.5 216 226 221 225.5 226C221.1 252 197 259.167 185.5 259.5H92C65.5923 259.5 57.0594 232.191 54.5263 224.084L54.5 224C52.5 217.6 49 216 47.5 216H6Z" fill="#111111"/>
</svg>
